<mxfile host="65bd71144e">
    <diagram id="VjPAeXvXJXWQ2Y_U2htf" name="Page-1">
        <mxGraphModel dx="1461" dy="662" grid="1" gridSize="10" guides="1" tooltips="1" connect="1" arrows="1" fold="1" page="1" pageScale="1" pageWidth="850" pageHeight="1100" math="0" shadow="0">
            <root>
                <mxCell id="0"/>
                <mxCell id="1" parent="0"/>
                <mxCell id="433" value="" style="rounded=0;whiteSpace=wrap;html=1;" vertex="1" parent="1">
                    <mxGeometry x="200" y="70" width="260" height="250" as="geometry"/>
                </mxCell>
                <mxCell id="434" value="&lt;font style=&quot;font-size: 18px;&quot;&gt;Reservation system*&lt;/font&gt;" style="rounded=0;whiteSpace=wrap;html=1;" vertex="1" parent="1">
                    <mxGeometry x="200" y="70" width="260" height="40" as="geometry"/>
                </mxCell>
                <mxCell id="435" value="&lt;font style=&quot;font-size: 14px;&quot;&gt;Responsibilities&lt;/font&gt;" style="text;html=1;align=center;verticalAlign=middle;whiteSpace=wrap;rounded=0;" vertex="1" parent="1">
                    <mxGeometry x="200" y="110" width="100" height="30" as="geometry"/>
                </mxCell>
                <mxCell id="436" value="" style="rounded=0;whiteSpace=wrap;html=1;" vertex="1" parent="1">
                    <mxGeometry x="200" y="140" width="130" height="180" as="geometry"/>
                </mxCell>
                <mxCell id="437" value="&lt;font style=&quot;font-size: 14px;&quot;&gt;Collaborators&lt;/font&gt;" style="text;html=1;align=center;verticalAlign=middle;whiteSpace=wrap;rounded=0;" vertex="1" parent="1">
                    <mxGeometry x="360" y="110" width="60" height="30" as="geometry"/>
                </mxCell>
                <mxCell id="438" value="" style="rounded=0;whiteSpace=wrap;html=1;" vertex="1" parent="1">
                    <mxGeometry x="330" y="140" width="130" height="180" as="geometry"/>
                </mxCell>
                <mxCell id="439" value="&lt;span style=&quot;font-size: 18px;&quot;&gt;ذخیره کردن رزرو های سالن&lt;/span&gt;" style="text;html=1;align=center;verticalAlign=middle;whiteSpace=wrap;rounded=0;shadow=0;" vertex="1" parent="1">
                    <mxGeometry x="200" y="150" width="130" height="30" as="geometry"/>
                </mxCell>
                <mxCell id="440" value="&lt;span style=&quot;font-size: 18px;&quot;&gt;Reserve&lt;/span&gt;" style="text;html=1;align=center;verticalAlign=middle;whiteSpace=wrap;rounded=0;" vertex="1" parent="1">
                    <mxGeometry x="330" y="150" width="130" height="30" as="geometry"/>
                </mxCell>
                <mxCell id="441" value="&lt;font style=&quot;font-size: 18px;&quot;&gt;Hall&lt;/font&gt;" style="text;html=1;align=center;verticalAlign=middle;whiteSpace=wrap;rounded=0;" vertex="1" parent="1">
                    <mxGeometry x="325" y="180" width="130" height="30" as="geometry"/>
                </mxCell>
                <mxCell id="442" value="&lt;span style=&quot;font-size: 18px;&quot;&gt;client&lt;/span&gt;" style="text;html=1;align=center;verticalAlign=middle;whiteSpace=wrap;rounded=0;" vertex="1" parent="1">
                    <mxGeometry x="340" y="210" width="130" height="30" as="geometry"/>
                </mxCell>
                <mxCell id="443" value="&lt;span style=&quot;font-size: 18px;&quot;&gt;ذخیره شماره تلفن مشتری&lt;/span&gt;" style="text;html=1;align=center;verticalAlign=middle;whiteSpace=wrap;rounded=0;shadow=0;" vertex="1" parent="1">
                    <mxGeometry x="200" y="185" width="130" height="30" as="geometry"/>
                </mxCell>
                <mxCell id="455" value="" style="rounded=0;whiteSpace=wrap;html=1;" vertex="1" parent="1">
                    <mxGeometry x="510" y="70" width="260" height="250" as="geometry"/>
                </mxCell>
                <mxCell id="456" value="&lt;font style=&quot;font-size: 18px;&quot;&gt;Reserve&lt;/font&gt;" style="rounded=0;whiteSpace=wrap;html=1;" vertex="1" parent="1">
                    <mxGeometry x="510" y="70" width="260" height="40" as="geometry"/>
                </mxCell>
                <mxCell id="457" value="&lt;font style=&quot;font-size: 14px;&quot;&gt;Responsibilities&lt;/font&gt;" style="text;html=1;align=center;verticalAlign=middle;whiteSpace=wrap;rounded=0;" vertex="1" parent="1">
                    <mxGeometry x="510" y="110" width="100" height="30" as="geometry"/>
                </mxCell>
                <mxCell id="458" value="" style="rounded=0;whiteSpace=wrap;html=1;" vertex="1" parent="1">
                    <mxGeometry x="510" y="140" width="130" height="180" as="geometry"/>
                </mxCell>
                <mxCell id="459" value="&lt;font style=&quot;font-size: 14px;&quot;&gt;Collaborators&lt;/font&gt;" style="text;html=1;align=center;verticalAlign=middle;whiteSpace=wrap;rounded=0;" vertex="1" parent="1">
                    <mxGeometry x="670" y="110" width="60" height="30" as="geometry"/>
                </mxCell>
                <mxCell id="460" value="" style="rounded=0;whiteSpace=wrap;html=1;" vertex="1" parent="1">
                    <mxGeometry x="640" y="140" width="130" height="180" as="geometry"/>
                </mxCell>
                <mxCell id="461" value="&lt;span style=&quot;font-size: 18px;&quot;&gt;ثبت شماره ردیف و صندلی&lt;/span&gt;" style="text;html=1;align=center;verticalAlign=middle;whiteSpace=wrap;rounded=0;shadow=0;" vertex="1" parent="1">
                    <mxGeometry x="510" y="150" width="130" height="30" as="geometry"/>
                </mxCell>
                <mxCell id="462" value="&lt;span style=&quot;font-size: 18px;&quot;&gt;Chair&lt;/span&gt;" style="text;html=1;align=center;verticalAlign=middle;whiteSpace=wrap;rounded=0;" vertex="1" parent="1">
                    <mxGeometry x="640" y="150" width="130" height="30" as="geometry"/>
                </mxCell>
                <mxCell id="463" value="&lt;font style=&quot;font-size: 18px;&quot;&gt;Row&lt;/font&gt;" style="text;html=1;align=center;verticalAlign=middle;whiteSpace=wrap;rounded=0;" vertex="1" parent="1">
                    <mxGeometry x="635" y="180" width="130" height="30" as="geometry"/>
                </mxCell>
                <mxCell id="464" value="&lt;font style=&quot;font-size: 18px;&quot;&gt;C2&lt;/font&gt;" style="text;html=1;align=center;verticalAlign=middle;whiteSpace=wrap;rounded=0;" vertex="1" parent="1">
                    <mxGeometry x="640" y="215" width="130" height="30" as="geometry"/>
                </mxCell>
                <mxCell id="465" value="&lt;span style=&quot;font-size: 18px;&quot;&gt;R2&lt;/span&gt;" style="text;html=1;align=center;verticalAlign=middle;whiteSpace=wrap;rounded=0;shadow=0;" vertex="1" parent="1">
                    <mxGeometry x="510" y="185" width="130" height="30" as="geometry"/>
                </mxCell>
                <mxCell id="466" value="" style="rounded=0;whiteSpace=wrap;html=1;" vertex="1" parent="1">
                    <mxGeometry x="200" y="360" width="260" height="250" as="geometry"/>
                </mxCell>
                <mxCell id="467" value="&lt;font style=&quot;font-size: 18px;&quot;&gt;Hall&lt;/font&gt;" style="rounded=0;whiteSpace=wrap;html=1;" vertex="1" parent="1">
                    <mxGeometry x="200" y="360" width="260" height="40" as="geometry"/>
                </mxCell>
                <mxCell id="468" value="&lt;font style=&quot;font-size: 14px;&quot;&gt;Responsibilities&lt;/font&gt;" style="text;html=1;align=center;verticalAlign=middle;whiteSpace=wrap;rounded=0;" vertex="1" parent="1">
                    <mxGeometry x="210" y="390" width="80" height="40" as="geometry"/>
                </mxCell>
                <mxCell id="469" value="" style="rounded=0;whiteSpace=wrap;html=1;" vertex="1" parent="1">
                    <mxGeometry x="200" y="430" width="130" height="180" as="geometry"/>
                </mxCell>
                <mxCell id="470" value="&lt;font style=&quot;font-size: 14px;&quot;&gt;Collaborators&lt;/font&gt;" style="text;html=1;align=center;verticalAlign=middle;whiteSpace=wrap;rounded=0;" vertex="1" parent="1">
                    <mxGeometry x="360" y="400" width="60" height="30" as="geometry"/>
                </mxCell>
                <mxCell id="471" value="" style="rounded=0;whiteSpace=wrap;html=1;" vertex="1" parent="1">
                    <mxGeometry x="330" y="430" width="130" height="180" as="geometry"/>
                </mxCell>
                <mxCell id="472" value="&lt;font style=&quot;font-size: 18px;&quot;&gt;R1&lt;/font&gt;" style="text;html=1;align=center;verticalAlign=middle;whiteSpace=wrap;rounded=0;shadow=0;" vertex="1" parent="1">
                    <mxGeometry x="200" y="440" width="130" height="30" as="geometry"/>
                </mxCell>
                <mxCell id="473" value="&lt;span style=&quot;font-size: 18px;&quot;&gt;Chair&lt;/span&gt;" style="text;html=1;align=center;verticalAlign=middle;whiteSpace=wrap;rounded=0;" vertex="1" parent="1">
                    <mxGeometry x="330" y="440" width="130" height="30" as="geometry"/>
                </mxCell>
                <mxCell id="474" value="&lt;font style=&quot;font-size: 18px;&quot;&gt;Row&lt;/font&gt;" style="text;html=1;align=center;verticalAlign=middle;whiteSpace=wrap;rounded=0;" vertex="1" parent="1">
                    <mxGeometry x="325" y="470" width="130" height="30" as="geometry"/>
                </mxCell>
                <mxCell id="475" value="&lt;span style=&quot;font-size: 18px;&quot;&gt;Show&lt;/span&gt;" style="text;html=1;align=center;verticalAlign=middle;whiteSpace=wrap;rounded=0;" vertex="1" parent="1">
                    <mxGeometry x="330" y="505" width="130" height="30" as="geometry"/>
                </mxCell>
                <mxCell id="476" value="&lt;span style=&quot;font-size: 18px;&quot;&gt;R2&lt;/span&gt;" style="text;html=1;align=center;verticalAlign=middle;whiteSpace=wrap;rounded=0;shadow=0;" vertex="1" parent="1">
                    <mxGeometry x="200" y="475" width="130" height="30" as="geometry"/>
                </mxCell>
                <mxCell id="477" value="" style="rounded=0;whiteSpace=wrap;html=1;" vertex="1" parent="1">
                    <mxGeometry x="520" y="360" width="260" height="250" as="geometry"/>
                </mxCell>
                <mxCell id="478" value="&lt;font style=&quot;font-size: 18px;&quot;&gt;Chair*&lt;/font&gt;" style="rounded=0;whiteSpace=wrap;html=1;" vertex="1" parent="1">
                    <mxGeometry x="520" y="360" width="260" height="40" as="geometry"/>
                </mxCell>
                <mxCell id="479" value="&lt;font style=&quot;font-size: 14px;&quot;&gt;Responsibilities&lt;/font&gt;" style="text;html=1;align=center;verticalAlign=middle;whiteSpace=wrap;rounded=0;" vertex="1" parent="1">
                    <mxGeometry x="520" y="400" width="100" height="30" as="geometry"/>
                </mxCell>
                <mxCell id="480" value="" style="rounded=0;whiteSpace=wrap;html=1;" vertex="1" parent="1">
                    <mxGeometry x="520" y="430" width="130" height="180" as="geometry"/>
                </mxCell>
                <mxCell id="481" value="&lt;font style=&quot;font-size: 14px;&quot;&gt;Collaborators&lt;/font&gt;" style="text;html=1;align=center;verticalAlign=middle;whiteSpace=wrap;rounded=0;" vertex="1" parent="1">
                    <mxGeometry x="680" y="400" width="60" height="30" as="geometry"/>
                </mxCell>
                <mxCell id="482" value="" style="rounded=0;whiteSpace=wrap;html=1;" vertex="1" parent="1">
                    <mxGeometry x="650" y="430" width="130" height="180" as="geometry"/>
                </mxCell>
                <mxCell id="483" value="&lt;font style=&quot;font-size: 18px;&quot;&gt;R1&lt;/font&gt;" style="text;html=1;align=center;verticalAlign=middle;whiteSpace=wrap;rounded=0;shadow=0;" vertex="1" parent="1">
                    <mxGeometry x="520" y="440" width="130" height="30" as="geometry"/>
                </mxCell>
                <mxCell id="484" value="&lt;span style=&quot;font-size: 18px;&quot;&gt;C1&lt;/span&gt;" style="text;html=1;align=center;verticalAlign=middle;whiteSpace=wrap;rounded=0;" vertex="1" parent="1">
                    <mxGeometry x="650" y="440" width="130" height="30" as="geometry"/>
                </mxCell>
                <mxCell id="485" value="&lt;font style=&quot;font-size: 18px;&quot;&gt;C2&lt;/font&gt;" style="text;html=1;align=center;verticalAlign=middle;whiteSpace=wrap;rounded=0;" vertex="1" parent="1">
                    <mxGeometry x="645" y="470" width="130" height="30" as="geometry"/>
                </mxCell>
                <mxCell id="486" value="&lt;font style=&quot;font-size: 18px;&quot;&gt;C2&lt;/font&gt;" style="text;html=1;align=center;verticalAlign=middle;whiteSpace=wrap;rounded=0;" vertex="1" parent="1">
                    <mxGeometry x="650" y="505" width="130" height="30" as="geometry"/>
                </mxCell>
                <mxCell id="487" value="&lt;span style=&quot;font-size: 18px;&quot;&gt;R2&lt;/span&gt;" style="text;html=1;align=center;verticalAlign=middle;whiteSpace=wrap;rounded=0;shadow=0;" vertex="1" parent="1">
                    <mxGeometry x="520" y="475" width="130" height="30" as="geometry"/>
                </mxCell>
                <mxCell id="488" value="" style="rounded=0;whiteSpace=wrap;html=1;" vertex="1" parent="1">
                    <mxGeometry x="195" y="660" width="260" height="250" as="geometry"/>
                </mxCell>
                <mxCell id="489" value="&lt;font style=&quot;font-size: 18px;&quot;&gt;Row*&lt;/font&gt;" style="rounded=0;whiteSpace=wrap;html=1;" vertex="1" parent="1">
                    <mxGeometry x="195" y="660" width="260" height="40" as="geometry"/>
                </mxCell>
                <mxCell id="490" value="&lt;font style=&quot;font-size: 14px;&quot;&gt;Responsibilities&lt;/font&gt;" style="text;html=1;align=center;verticalAlign=middle;whiteSpace=wrap;rounded=0;" vertex="1" parent="1">
                    <mxGeometry x="195" y="700" width="100" height="30" as="geometry"/>
                </mxCell>
                <mxCell id="491" value="" style="rounded=0;whiteSpace=wrap;html=1;" vertex="1" parent="1">
                    <mxGeometry x="195" y="730" width="130" height="180" as="geometry"/>
                </mxCell>
                <mxCell id="492" value="&lt;font style=&quot;font-size: 14px;&quot;&gt;Collaborators&lt;/font&gt;" style="text;html=1;align=center;verticalAlign=middle;whiteSpace=wrap;rounded=0;" vertex="1" parent="1">
                    <mxGeometry x="355" y="700" width="60" height="30" as="geometry"/>
                </mxCell>
                <mxCell id="493" value="" style="rounded=0;whiteSpace=wrap;html=1;" vertex="1" parent="1">
                    <mxGeometry x="325" y="730" width="130" height="180" as="geometry"/>
                </mxCell>
                <mxCell id="494" value="&lt;font style=&quot;font-size: 18px;&quot;&gt;R1&lt;/font&gt;" style="text;html=1;align=center;verticalAlign=middle;whiteSpace=wrap;rounded=0;shadow=0;" vertex="1" parent="1">
                    <mxGeometry x="195" y="740" width="130" height="30" as="geometry"/>
                </mxCell>
                <mxCell id="495" value="&lt;span style=&quot;font-size: 18px;&quot;&gt;C1&lt;/span&gt;" style="text;html=1;align=center;verticalAlign=middle;whiteSpace=wrap;rounded=0;" vertex="1" parent="1">
                    <mxGeometry x="325" y="740" width="130" height="30" as="geometry"/>
                </mxCell>
                <mxCell id="496" value="&lt;font style=&quot;font-size: 18px;&quot;&gt;C2&lt;/font&gt;" style="text;html=1;align=center;verticalAlign=middle;whiteSpace=wrap;rounded=0;" vertex="1" parent="1">
                    <mxGeometry x="320" y="770" width="130" height="30" as="geometry"/>
                </mxCell>
                <mxCell id="497" value="&lt;font style=&quot;font-size: 18px;&quot;&gt;C2&lt;/font&gt;" style="text;html=1;align=center;verticalAlign=middle;whiteSpace=wrap;rounded=0;" vertex="1" parent="1">
                    <mxGeometry x="325" y="805" width="130" height="30" as="geometry"/>
                </mxCell>
                <mxCell id="498" value="&lt;span style=&quot;font-size: 18px;&quot;&gt;R2&lt;/span&gt;" style="text;html=1;align=center;verticalAlign=middle;whiteSpace=wrap;rounded=0;shadow=0;" vertex="1" parent="1">
                    <mxGeometry x="195" y="775" width="130" height="30" as="geometry"/>
                </mxCell>
                <mxCell id="499" value="" style="rounded=0;whiteSpace=wrap;html=1;" vertex="1" parent="1">
                    <mxGeometry x="810" y="70" width="260" height="250" as="geometry"/>
                </mxCell>
                <mxCell id="500" value="&lt;font style=&quot;font-size: 18px;&quot;&gt;Client*&lt;/font&gt;" style="rounded=0;whiteSpace=wrap;html=1;" vertex="1" parent="1">
                    <mxGeometry x="810" y="70" width="260" height="40" as="geometry"/>
                </mxCell>
                <mxCell id="501" value="&lt;font style=&quot;font-size: 14px;&quot;&gt;Responsibilities&lt;/font&gt;" style="text;html=1;align=center;verticalAlign=middle;whiteSpace=wrap;rounded=0;" vertex="1" parent="1">
                    <mxGeometry x="810" y="110" width="100" height="30" as="geometry"/>
                </mxCell>
                <mxCell id="502" value="" style="rounded=0;whiteSpace=wrap;html=1;" vertex="1" parent="1">
                    <mxGeometry x="810" y="140" width="130" height="180" as="geometry"/>
                </mxCell>
                <mxCell id="503" value="&lt;font style=&quot;font-size: 14px;&quot;&gt;Collaborators&lt;/font&gt;" style="text;html=1;align=center;verticalAlign=middle;whiteSpace=wrap;rounded=0;" vertex="1" parent="1">
                    <mxGeometry x="970" y="110" width="60" height="30" as="geometry"/>
                </mxCell>
                <mxCell id="504" value="" style="rounded=0;whiteSpace=wrap;html=1;" vertex="1" parent="1">
                    <mxGeometry x="940" y="140" width="130" height="180" as="geometry"/>
                </mxCell>
                <mxCell id="505" value="&lt;font style=&quot;font-size: 18px;&quot;&gt;رزرو صتدلی&lt;/font&gt;" style="text;html=1;align=center;verticalAlign=middle;whiteSpace=wrap;rounded=0;shadow=0;" vertex="1" parent="1">
                    <mxGeometry x="810" y="150" width="130" height="30" as="geometry"/>
                </mxCell>
                <mxCell id="506" value="&lt;span style=&quot;font-size: 18px;&quot;&gt;Chair&lt;/span&gt;" style="text;html=1;align=center;verticalAlign=middle;whiteSpace=wrap;rounded=0;" vertex="1" parent="1">
                    <mxGeometry x="940" y="150" width="130" height="30" as="geometry"/>
                </mxCell>
                <mxCell id="507" value="&lt;font style=&quot;font-size: 18px;&quot;&gt;Reserve&lt;/font&gt;" style="text;html=1;align=center;verticalAlign=middle;whiteSpace=wrap;rounded=0;" vertex="1" parent="1">
                    <mxGeometry x="935" y="180" width="130" height="30" as="geometry"/>
                </mxCell>
                <mxCell id="508" value="&lt;font style=&quot;font-size: 18px;&quot;&gt;Reservatio system&lt;/font&gt;" style="text;html=1;align=center;verticalAlign=middle;whiteSpace=wrap;rounded=0;" vertex="1" parent="1">
                    <mxGeometry x="940" y="215" width="130" height="30" as="geometry"/>
                </mxCell>
                <mxCell id="509" value="&lt;span style=&quot;font-size: 18px;&quot;&gt;رزرو صتدلی مجاور&amp;nbsp;&lt;/span&gt;" style="text;html=1;align=center;verticalAlign=middle;whiteSpace=wrap;rounded=0;shadow=0;" vertex="1" parent="1">
                    <mxGeometry x="810" y="185" width="130" height="30" as="geometry"/>
                </mxCell>
                <mxCell id="510" value="" style="rounded=0;whiteSpace=wrap;html=1;" vertex="1" parent="1">
                    <mxGeometry x="830" y="360" width="260" height="250" as="geometry"/>
                </mxCell>
                <mxCell id="511" value="&lt;span style=&quot;font-size: 18px;&quot;&gt;Show*&lt;/span&gt;" style="rounded=0;whiteSpace=wrap;html=1;" vertex="1" parent="1">
                    <mxGeometry x="830" y="360" width="260" height="40" as="geometry"/>
                </mxCell>
                <mxCell id="512" value="&lt;font style=&quot;font-size: 14px;&quot;&gt;Responsibilities&lt;/font&gt;" style="text;html=1;align=center;verticalAlign=middle;whiteSpace=wrap;rounded=0;" vertex="1" parent="1">
                    <mxGeometry x="830" y="400" width="100" height="30" as="geometry"/>
                </mxCell>
                <mxCell id="513" value="" style="rounded=0;whiteSpace=wrap;html=1;" vertex="1" parent="1">
                    <mxGeometry x="830" y="430" width="130" height="180" as="geometry"/>
                </mxCell>
                <mxCell id="514" value="&lt;font style=&quot;font-size: 14px;&quot;&gt;Collaborators&lt;/font&gt;" style="text;html=1;align=center;verticalAlign=middle;whiteSpace=wrap;rounded=0;" vertex="1" parent="1">
                    <mxGeometry x="990" y="400" width="60" height="30" as="geometry"/>
                </mxCell>
                <mxCell id="515" value="" style="rounded=0;whiteSpace=wrap;html=1;" vertex="1" parent="1">
                    <mxGeometry x="960" y="430" width="130" height="180" as="geometry"/>
                </mxCell>
                <mxCell id="516" value="&lt;font style=&quot;font-size: 18px;&quot;&gt;برنامه ریزی شدن در زمان و سالن مشخص&lt;/font&gt;" style="text;html=1;align=center;verticalAlign=middle;whiteSpace=wrap;rounded=0;shadow=0;" vertex="1" parent="1">
                    <mxGeometry x="830" y="440" width="130" height="30" as="geometry"/>
                </mxCell>
                <mxCell id="517" value="&lt;span style=&quot;font-size: 18px;&quot;&gt;Film&lt;/span&gt;" style="text;html=1;align=center;verticalAlign=middle;whiteSpace=wrap;rounded=0;" vertex="1" parent="1">
                    <mxGeometry x="960" y="440" width="130" height="30" as="geometry"/>
                </mxCell>
                <mxCell id="518" value="&lt;font style=&quot;font-size: 18px;&quot;&gt;Time&lt;/font&gt;" style="text;html=1;align=center;verticalAlign=middle;whiteSpace=wrap;rounded=0;" vertex="1" parent="1">
                    <mxGeometry x="955" y="470" width="130" height="30" as="geometry"/>
                </mxCell>
                <mxCell id="519" value="&lt;font style=&quot;font-size: 18px;&quot;&gt;Hall&lt;/font&gt;" style="text;html=1;align=center;verticalAlign=middle;whiteSpace=wrap;rounded=0;" vertex="1" parent="1">
                    <mxGeometry x="960" y="505" width="130" height="30" as="geometry"/>
                </mxCell>
                <mxCell id="520" value="&lt;span style=&quot;font-size: 18px;&quot;&gt;R2&lt;/span&gt;" style="text;html=1;align=center;verticalAlign=middle;whiteSpace=wrap;rounded=0;shadow=0;" vertex="1" parent="1">
                    <mxGeometry x="830" y="475" width="130" height="30" as="geometry"/>
                </mxCell>
                <mxCell id="521" value="" style="rounded=0;whiteSpace=wrap;html=1;" vertex="1" parent="1">
                    <mxGeometry x="520" y="665" width="260" height="250" as="geometry"/>
                </mxCell>
                <mxCell id="522" value="&lt;font style=&quot;font-size: 18px;&quot;&gt;Film*&lt;/font&gt;" style="rounded=0;whiteSpace=wrap;html=1;" vertex="1" parent="1">
                    <mxGeometry x="520" y="665" width="260" height="40" as="geometry"/>
                </mxCell>
                <mxCell id="523" value="&lt;font style=&quot;font-size: 14px;&quot;&gt;Responsibilities&lt;/font&gt;" style="text;html=1;align=center;verticalAlign=middle;whiteSpace=wrap;rounded=0;" vertex="1" parent="1">
                    <mxGeometry x="520" y="705" width="100" height="30" as="geometry"/>
                </mxCell>
                <mxCell id="524" value="" style="rounded=0;whiteSpace=wrap;html=1;" vertex="1" parent="1">
                    <mxGeometry x="520" y="735" width="130" height="180" as="geometry"/>
                </mxCell>
                <mxCell id="525" value="&lt;font style=&quot;font-size: 14px;&quot;&gt;Collaborators&lt;/font&gt;" style="text;html=1;align=center;verticalAlign=middle;whiteSpace=wrap;rounded=0;" vertex="1" parent="1">
                    <mxGeometry x="680" y="705" width="60" height="30" as="geometry"/>
                </mxCell>
                <mxCell id="526" value="" style="rounded=0;whiteSpace=wrap;html=1;" vertex="1" parent="1">
                    <mxGeometry x="650" y="735" width="130" height="180" as="geometry"/>
                </mxCell>
                <mxCell id="527" value="&lt;font style=&quot;font-size: 18px;&quot;&gt;R1&lt;/font&gt;" style="text;html=1;align=center;verticalAlign=middle;whiteSpace=wrap;rounded=0;shadow=0;" vertex="1" parent="1">
                    <mxGeometry x="520" y="745" width="130" height="30" as="geometry"/>
                </mxCell>
                <mxCell id="528" value="&lt;span style=&quot;font-size: 18px;&quot;&gt;C1&lt;/span&gt;" style="text;html=1;align=center;verticalAlign=middle;whiteSpace=wrap;rounded=0;" vertex="1" parent="1">
                    <mxGeometry x="650" y="745" width="130" height="30" as="geometry"/>
                </mxCell>
                <mxCell id="529" value="&lt;font style=&quot;font-size: 18px;&quot;&gt;C2&lt;/font&gt;" style="text;html=1;align=center;verticalAlign=middle;whiteSpace=wrap;rounded=0;" vertex="1" parent="1">
                    <mxGeometry x="645" y="775" width="130" height="30" as="geometry"/>
                </mxCell>
                <mxCell id="530" value="&lt;font style=&quot;font-size: 18px;&quot;&gt;C2&lt;/font&gt;" style="text;html=1;align=center;verticalAlign=middle;whiteSpace=wrap;rounded=0;" vertex="1" parent="1">
                    <mxGeometry x="650" y="810" width="130" height="30" as="geometry"/>
                </mxCell>
                <mxCell id="531" value="&lt;span style=&quot;font-size: 18px;&quot;&gt;R2&lt;/span&gt;" style="text;html=1;align=center;verticalAlign=middle;whiteSpace=wrap;rounded=0;shadow=0;" vertex="1" parent="1">
                    <mxGeometry x="520" y="780" width="130" height="30" as="geometry"/>
                </mxCell>
                <mxCell id="532" value="" style="rounded=0;whiteSpace=wrap;html=1;" vertex="1" parent="1">
                    <mxGeometry x="830" y="670" width="260" height="250" as="geometry"/>
                </mxCell>
                <mxCell id="533" value="&lt;font style=&quot;font-size: 18px;&quot;&gt;Time*&lt;/font&gt;" style="rounded=0;whiteSpace=wrap;html=1;" vertex="1" parent="1">
                    <mxGeometry x="830" y="670" width="260" height="40" as="geometry"/>
                </mxCell>
                <mxCell id="534" value="&lt;font style=&quot;font-size: 14px;&quot;&gt;Responsibilities&lt;/font&gt;" style="text;html=1;align=center;verticalAlign=middle;whiteSpace=wrap;rounded=0;" vertex="1" parent="1">
                    <mxGeometry x="830" y="710" width="100" height="30" as="geometry"/>
                </mxCell>
                <mxCell id="535" value="" style="rounded=0;whiteSpace=wrap;html=1;" vertex="1" parent="1">
                    <mxGeometry x="830" y="740" width="130" height="180" as="geometry"/>
                </mxCell>
                <mxCell id="536" value="&lt;font style=&quot;font-size: 14px;&quot;&gt;Collaborators&lt;/font&gt;" style="text;html=1;align=center;verticalAlign=middle;whiteSpace=wrap;rounded=0;" vertex="1" parent="1">
                    <mxGeometry x="990" y="710" width="60" height="30" as="geometry"/>
                </mxCell>
                <mxCell id="537" value="" style="rounded=0;whiteSpace=wrap;html=1;" vertex="1" parent="1">
                    <mxGeometry x="960" y="740" width="130" height="180" as="geometry"/>
                </mxCell>
                <mxCell id="538" value="&lt;font style=&quot;font-size: 18px;&quot;&gt;R1&lt;/font&gt;" style="text;html=1;align=center;verticalAlign=middle;whiteSpace=wrap;rounded=0;shadow=0;" vertex="1" parent="1">
                    <mxGeometry x="830" y="750" width="130" height="30" as="geometry"/>
                </mxCell>
                <mxCell id="539" value="&lt;span style=&quot;font-size: 18px;&quot;&gt;C1&lt;/span&gt;" style="text;html=1;align=center;verticalAlign=middle;whiteSpace=wrap;rounded=0;" vertex="1" parent="1">
                    <mxGeometry x="960" y="750" width="130" height="30" as="geometry"/>
                </mxCell>
                <mxCell id="540" value="&lt;font style=&quot;font-size: 18px;&quot;&gt;C2&lt;/font&gt;" style="text;html=1;align=center;verticalAlign=middle;whiteSpace=wrap;rounded=0;" vertex="1" parent="1">
                    <mxGeometry x="955" y="780" width="130" height="30" as="geometry"/>
                </mxCell>
                <mxCell id="541" value="&lt;font style=&quot;font-size: 18px;&quot;&gt;C2&lt;/font&gt;" style="text;html=1;align=center;verticalAlign=middle;whiteSpace=wrap;rounded=0;" vertex="1" parent="1">
                    <mxGeometry x="960" y="815" width="130" height="30" as="geometry"/>
                </mxCell>
                <mxCell id="542" value="&lt;span style=&quot;font-size: 18px;&quot;&gt;R2&lt;/span&gt;" style="text;html=1;align=center;verticalAlign=middle;whiteSpace=wrap;rounded=0;shadow=0;" vertex="1" parent="1">
                    <mxGeometry x="830" y="785" width="130" height="30" as="geometry"/>
                </mxCell>
            </root>
        </mxGraphModel>
    </diagram>
</mxfile>